<?xml version="1.0" encoding="UTF-8" standalone="no"?>
<svg
   aria-hidden="true"
   focusable="false"
   data-prefix="fas"
   data-icon="virus"
   class="svg-inline--fa fa-virus fa-w-16"
   role="img"
   viewBox="0 0 512 512"
   version="1.1"
   id="svg51"
   sodipodi:docname="virus-solid.svg"
   inkscape:version="1.1 (c4e8f9e, 2021-05-24)"
   xmlns:inkscape="http://www.inkscape.org/namespaces/inkscape"
   xmlns:sodipodi="http://sodipodi.sourceforge.net/DTD/sodipodi-0.dtd"
   xmlns="http://www.w3.org/2000/svg"
   xmlns:svg="http://www.w3.org/2000/svg">
  <defs
     id="defs55" />
  <sodipodi:namedview
     id="namedview53"
     pagecolor="#ffffff"
     bordercolor="#111111"
     borderopacity="1"
     inkscape:pageshadow="0"
     inkscape:pageopacity="0"
     inkscape:pagecheckerboard="1"
     showgrid="false"
     inkscape:zoom="1.5175781"
     inkscape:cx="113.00901"
     inkscape:cy="256"
     inkscape:window-width="1460"
     inkscape:window-height="1003"
     inkscape:window-x="0"
     inkscape:window-y="23"
     inkscape:window-maximized="0"
     inkscape:current-layer="svg51" />
  <path
     fill="currentColor"
     d="M483.55,227.55H462c-50.68,0-76.07-61.27-40.23-97.11L437,115.19A28.44,28.44,0,0,0,396.8,75L381.56,90.22c-35.84,35.83-97.11,10.45-97.11-40.23V28.44a28.45,28.45,0,0,0-56.9,0V50c0,50.68-61.27,76.06-97.11,40.23L115.2,75A28.44,28.44,0,0,0,75,115.19l15.25,15.25c35.84,35.84,10.45,97.11-40.23,97.11H28.45a28.45,28.45,0,1,0,0,56.89H50c50.68,0,76.07,61.28,40.23,97.12L75,396.8A28.45,28.45,0,0,0,115.2,437l15.24-15.25c35.84-35.84,97.11-10.45,97.11,40.23v21.54a28.45,28.45,0,0,0,56.9,0V462c0-50.68,61.27-76.07,97.11-40.23L396.8,437A28.45,28.45,0,0,0,437,396.8l-15.25-15.24c-35.84-35.84-10.45-97.12,40.23-97.12h21.54a28.45,28.45,0,1,0,0-56.89ZM224,272a48,48,0,1,1,48-48A48,48,0,0,1,224,272Zm80,56a24,24,0,1,1,24-24A24,24,0,0,1,304,328Z"
     id="path49" />
  <path
     style="fill:#ff6600;stroke-width:0.658945"
     d="m 248.76758,510.61418 c -8.89561,-2.39047 -15.57492,-8.63761 -19.22775,-17.98367 -1.31872,-3.37406 -1.48403,-5.34663 -1.91111,-22.80297 -0.52649,-21.51987 -0.79457,-23.10403 -5.59438,-33.05927 -7.00084,-14.52035 -19.94233,-25.27633 -35.99044,-29.91251 -6.95336,-2.00877 -19.5935,-2.46713 -26.95714,-0.97752 -6.70574,1.35653 -13.62784,4.15052 -19.20603,7.75218 -2.27597,1.46952 -9.32732,7.74671 -15.66966,13.94929 -12.57403,12.29696 -15.57965,14.37395 -23.05663,15.93294 -8.851166,1.84552 -17.487901,-0.76393 -24.423207,-7.3791 -9.263155,-8.83556 -11.433441,-22.16735 -5.4324,-33.37053 1.164059,-2.17315 6.111712,-7.81616 13.417794,-15.30356 14.805742,-15.17319 18.777923,-21.58955 21.411423,-34.58638 1.49338,-7.37016 1.0215,-19.97386 -1.01151,-27.01693 -4.58001,-15.86677 -15.478104,-28.945 -29.923067,-35.90909 -9.941412,-4.79288 -11.481695,-5.05093 -33.350487,-5.58721 C 21.51948,283.86147 20.786161,283.75764 14.331325,280.46463 4.6933119,275.54768 -1.734951,262.39149 0.24641657,251.63822 2.1760632,241.16565 8.5886636,233.49171 18.710548,229.54223 c 3.376323,-1.31741 5.363209,-1.48223 23.132438,-1.91893 21.874557,-0.5376 23.461204,-0.80261 33.350487,-5.57036 11.225294,-5.41185 20.272373,-14.37334 25.826647,-25.58232 4.01671,-8.10608 5.46303,-13.90486 5.87278,-23.54602 0.40976,-9.64124 -0.68895,-16.49182 -3.87293,-24.14811 C 99.753421,140.92163 96.250439,136.30565 84.377732,124.21107 71.834621,111.43356 69.434798,107.81691 68.081905,99.652458 65.149041,81.953211 82.227866,65.004678 99.874173,68.102728 c 8.034227,1.410517 11.531237,3.759938 24.666557,16.571852 12.28541,11.982922 16.78877,15.34468 25.05499,18.70355 12.19436,4.95501 29.13293,4.92727 41.8277,-0.0685 13.45672,-5.295612 23.98535,-14.863409 30.34204,-27.573055 4.90886,-9.814836 5.8804,-15.357147 5.89126,-33.607852 0.005,-7.997273 0.32738,-16.264618 0.71693,-18.371876 2.78286,-15.0538877 17.28533,-25.4664155 31.96677,-22.95159235 10.5538,1.80778875 17.95193,8.07456075 22.19602,18.80169335 1.22428,3.094415 1.41724,5.455889 1.84393,22.56549 0.54349,21.793304 0.80329,23.270997 5.90842,33.606178 6.19587,12.543328 16.87933,22.254393 30.28779,27.531014 12.69477,4.99575 29.63334,5.02349 41.8277,0.0685 8.35232,-3.393854 12.84747,-6.748502 25.07734,-18.714759 13.15116,-12.867687 16.68833,-15.226399 24.86592,-16.581466 11.31669,-1.875238 23.89565,4.883004 28.86869,15.510154 4.02925,8.610305 3.9765,16.371737 -0.16858,24.804341 -1.68999,3.43804 -4.33891,6.55839 -13.42538,15.81467 -6.22599,6.34234 -12.52233,13.39369 -13.99185,15.66966 -13.37789,20.71943 -11.21954,49.64737 5.09206,68.24775 5.45041,6.21518 10.46769,10.10962 17.49888,13.58273 10.37001,5.12232 11.77742,5.36752 33.93565,5.91209 21.42421,0.52652 22.96901,0.80536 29.90142,5.3972 8.30466,5.50078 13.41524,17.28321 11.70582,26.98776 -1.88995,10.72936 -8.24348,18.45103 -18.4748,22.45307 -3.38365,1.32353 -5.32465,1.48379 -23.13244,1.90999 -21.7742,0.52112 -23.2511,0.76537 -33.2767,5.50327 -12.74746,6.02421 -22.5335,16.59802 -28.00033,30.25436 -5.36227,13.39516 -5.32219,30.02147 0.10389,43.09456 3.25751,7.84835 6.76136,12.46643 18.6384,24.56542 9.16092,9.33212 11.71686,12.34846 13.40082,15.81467 5.54543,11.41458 3.34568,23.85002 -5.75432,32.52995 -6.93531,6.61517 -15.57204,9.22462 -24.42321,7.3791 -7.47698,-1.55899 -10.4826,-3.63598 -23.05663,-15.93294 -12.10851,-11.8417 -16.73106,-15.34166 -24.56542,-18.59968 -7.65629,-3.18398 -14.50687,-4.28269 -24.14811,-3.87293 -9.63923,0.40966 -15.51319,1.87139 -23.43719,5.83229 -12.0752,6.03592 -20.75007,14.96424 -26.36181,27.13201 -4.08387,8.85494 -4.39395,10.86238 -4.90512,31.75614 -0.51464,21.03539 -0.80811,22.65188 -5.36023,29.52431 -6.43769,9.71914 -18.823,14.33129 -30.24347,11.26233 z m 60.0803,-182.87117 c 7.59975,-1.6125 13.78544,-6.44895 17.0544,-13.33443 5.90737,-12.44282 0.46887,-26.97602 -12.29711,-32.86138 -2.64868,-1.2211 -4.38824,-1.49482 -9.50221,-1.49523 -5.40218,-4.2e-4 -6.77241,0.23973 -9.99958,1.75257 -5.23573,2.45442 -9.37149,6.50347 -11.91038,11.66067 -1.96152,3.98444 -2.14152,4.87739 -2.14152,10.62389 0,5.43257 0.23752,6.78064 1.77136,10.0534 3.18133,6.78807 10.0197,12.24078 17.09537,13.63133 4.12949,0.81155 5.98672,0.80579 9.92967,-0.0308 z m -77.68453,-56.00335 c 21.59401,-3.34454 37.82647,-20.07929 40.74591,-42.00673 1.96555,-14.76294 -3.64661,-30.2082 -14.78293,-40.6842 -5.66396,-5.32812 -10.42045,-8.29591 -16.91656,-10.55504 -30.43714,-10.58499 -61.91264,10.16191 -64.37395,42.43171 -0.68708,9.00831 1.8571,19.87416 6.48047,27.67716 3.08524,5.20704 10.45725,12.81399 15.512,16.00636 10.11289,6.38686 21.88255,8.90452 33.33506,7.13074 z"
     id="path1063" />
</svg>
